<svg width="32" height="33" viewBox="0 0 32 33" fill="none" xmlns="http://www.w3.org/2000/svg">
<g id="alert-triangle 1">
<path id="Vector" d="M13.72 5.6467L2.42669 24.5C2.19385 24.9033 2.07065 25.3604 2.06935 25.8261C2.06804 26.2917 2.18868 26.7495 2.41926 27.1541C2.64984 27.5586 2.98233 27.8957 3.38364 28.1318C3.78495 28.368 4.24109 28.4949 4.70669 28.5H27.2934C27.759 28.4949 28.2151 28.368 28.6164 28.1318C29.0177 27.8957 29.3502 27.5586 29.5808 27.1541C29.8114 26.7495 29.932 26.2917 29.9307 25.8261C29.9294 25.3604 29.8062 24.9033 29.5734 24.5L18.28 5.6467C18.0423 5.25484 17.7077 4.93085 17.3083 4.70601C16.9089 4.48116 16.4583 4.36304 16 4.36304C15.5417 4.36304 15.0911 4.48116 14.6918 4.70601C14.2924 4.93085 13.9577 5.25484 13.72 5.6467Z" stroke="#1B1C1E" stroke-width="3.42857" stroke-linecap="round" stroke-linejoin="round"/>
<path id="Vector_2" d="M16 12.5V17.8333" stroke="#1B1C1E" stroke-width="3.42857" stroke-linecap="round" stroke-linejoin="round"/>
<path id="Vector_3" d="M16 23.1667H16.0121" stroke="#1B1C1E" stroke-width="3.42857" stroke-linecap="round" stroke-linejoin="round"/>
</g>
</svg>
