<svg width="26" height="26" viewBox="0 0 26 26" fill="none" xmlns="http://www.w3.org/2000/svg">
<g id="edit-2 1" clip-path="url(#clip0_52_909)">
<path id="Vector" d="M18.4167 3.25C18.7013 2.96547 19.0391 2.73977 19.4108 2.58578C19.7826 2.43179 20.181 2.35254 20.5834 2.35254C20.9858 2.35254 21.3842 2.43179 21.756 2.58578C22.1278 2.73977 22.4656 2.96547 22.7501 3.25C23.0346 3.53453 23.2603 3.87232 23.4143 4.24408C23.5683 4.61583 23.6475 5.01428 23.6475 5.41667C23.6475 5.81906 23.5683 6.2175 23.4143 6.58926C23.2603 6.96102 23.0346 7.2988 22.7501 7.58334L8.12508 22.2083L2.16675 23.8333L3.79175 17.875L18.4167 3.25Z" stroke="white" stroke-width="3" stroke-linecap="round" stroke-linejoin="round"/>
</g>
<defs>
<clipPath id="clip0_52_909">
<rect width="26" height="26" fill="white"/>
</clipPath>
</defs>
</svg>
