<svg width="32" height="33" viewBox="0 0 32 33" fill="none" xmlns="http://www.w3.org/2000/svg">
<g id="home 1">
<path id="Union" fill-rule="evenodd" clip-rule="evenodd" d="M16.8185 2.11419C16.3371 1.73971 15.6629 1.73971 15.1814 2.11419L3.18137 11.4475C2.85659 11.7001 2.66663 12.0885 2.66663 12.5V27.1667C2.66663 28.2275 3.08805 29.2449 3.8382 29.9951C4.58834 30.7452 5.60576 31.1667 6.66663 31.1667H11.9967C11.9978 31.1667 11.9989 31.1667 12 31.1667C12.001 31.1667 12.0021 31.1667 12.0032 31.1667H19.9967C19.9978 31.1667 19.9989 31.1667 20 31.1667C20.001 31.1667 20.0021 31.1667 20.0032 31.1667H25.3333C26.3942 31.1667 27.4116 30.7452 28.1617 29.9951C28.9119 29.2449 29.3333 28.2275 29.3333 27.1667V12.5C29.3333 12.0885 29.1433 11.7001 28.8185 11.4475L16.8185 2.11419ZM21.3333 28.5H25.3333C25.6869 28.5 26.0261 28.3595 26.2761 28.1095C26.5262 27.8594 26.6666 27.5203 26.6666 27.1667V13.1521L16 4.85581L5.33329 13.1521V27.1667C5.33329 27.5203 5.47377 27.8594 5.72382 28.1095C5.97387 28.3595 6.313 28.5 6.66663 28.5H10.6666V16.5C10.6666 15.7636 11.2636 15.1667 12 15.1667H20C20.7363 15.1667 21.3333 15.7636 21.3333 16.5V28.5ZM13.3333 28.5H18.6666V17.8333H13.3333V28.5Z" fill="#1B1C1E"/>
</g>
</svg>
