<svg width="70" height="47" viewBox="0 0 70 47" fill="none" xmlns="http://www.w3.org/2000/svg">
<g id="FalaUnb2 1" clip-path="url(#clip0_50_971)">
<g id="Camada 1">
<g id="Group">
<g id="Group 2">
<path id="Vector" d="M68.4 20C68.4 27.8 60.2 32.8 53.9 33C51 33.1 48.6 32.2 47.1 31.5C46.5 32 45.6 32.6 44.4 33C42.3 33.7 39.7 33.8 39.4 33C39.2 32.4 40.5 31.9 41.4 30C41.9 29 42 28 42 27.3C40.9 25.9 39.3 23.3 39.4 20C39.5 13.4 46.3 7 53.9 7C61.5 7 68.4 12.8 68.4 20Z" stroke="white" stroke-width="3" stroke-miterlimit="10"/>
<path id="Vector_2" d="M53.4 14.2L55.3 17.9L59.4 18.5L56.4 21.4L57.1 25.5L53.4 23.5L49.8 25.5L50.5 21.4L47.5 18.5L51.6 17.9L53.4 14.2Z" fill="#E59500" stroke="#E59500" stroke-linejoin="round"/>
</g>
<g id="Group 1">
<g id="Group_2">
<path id="Vector_3" d="M31.7999 26.5C32.1999 28.1 32.1999 29.3 32.1999 29.8C31.9999 36 26.5999 44.9 17.0999 44.9C7.5999 44.9 1.8999 38.2 1.8999 29.9C1.8999 21.6 1.8999 28.4 2.0999 27.2" stroke="white" stroke-width="3" stroke-linecap="round" stroke-linejoin="round"/>
<path id="Vector_4" d="M10.9999 35.9C10.9999 35.9 13.2999 38.9 17.0999 38.9C20.8999 38.9 23.1999 35.9 23.1999 35.9" stroke="white" stroke-width="3" stroke-linecap="round" stroke-linejoin="round"/>
<path id="Vector_5" d="M12.4999 30.8C11.6999 30.8 10.9999 30.1 10.9999 29.3C10.9999 28.5 11.6999 27.8 12.4999 27.8C13.2999 27.8 13.9999 28.5 13.9999 29.3C13.9999 30.1 13.2999 30.8 12.4999 30.8Z" fill="white"/>
<path id="Vector_6" d="M21.5999 30.8C20.7999 30.8 20.0999 30.1 20.0999 29.3C20.0999 28.5 20.7999 27.8 21.5999 27.8C22.3999 27.8 23.0999 28.5 23.0999 29.3C23.0999 30.1 22.3999 30.8 21.5999 30.8Z" fill="white"/>
</g>
<g id="Group_3">
<path id="Vector_7" d="M16.9 2.5C23.1 2.5 27 6.5 27.9 7.5C32 12 31.9 17.4 31.9 18.5C29.6 17.2 24.2 14.5 16.9 14.5C9.6 14.5 8.2 14.9 1.9 18.5C1.9 17.4 1.8 12 5.9 7.5C6.8 6.5 10.7 2.5 16.9 2.5Z" stroke="white" stroke-width="3" stroke-linejoin="round"/>
<path id="Vector_8" d="M2.39994 18C0.899943 23.8 1.59994 25.5 2.39994 26C3.49994 26.6 4.69994 25.2 8.39994 24C12.1999 22.8 15.3999 22.9 17.3999 23C18.5999 23 21.1999 23.1 24.3999 24C28.7999 25.2 30.2999 26.7 31.3999 26C32.1999 25.5 32.8999 23.8 31.3999 18" stroke="white" stroke-width="3" stroke-miterlimit="10"/>
<path id="Vector_9" d="M15.8999 1.5H17.8999" stroke="white" stroke-width="3" stroke-linecap="round" stroke-linejoin="round"/>
<path id="Vector_10" d="M8.3999 6C8.6999 6.3 10.0999 7.4 12.4999 8.5C13.4999 9 14.5999 9.3 14.7999 9.4C15.3999 9.6 15.9999 9.7 16.4999 9.7C16.7999 9.7 16.8999 9.7 17.0999 9.7C17.3999 9.7 18.1999 9.7 19.0999 9.4C19.7999 9.2 20.5999 8.9 21.3999 8.5C23.0999 7.7 24.4999 6.8 25.4999 6" stroke="white" stroke-width="2" stroke-miterlimit="10"/>
<path id="Vector_11" d="M16.8999 2.5V14.5" stroke="white" stroke-width="2" stroke-miterlimit="10"/>
</g>
</g>
</g>
</g>
</g>
<defs>
<clipPath id="clip0_50_971">
<rect width="69.9" height="46.5" fill="white"/>
</clipPath>
</defs>
</svg>
