<svg width="226" height="151" viewBox="0 0 226 151" fill="none" xmlns="http://www.w3.org/2000/svg">
<g id="FalaUnb2 1" clip-path="url(#clip0_52_2)">
<g id="Camada 1">
<g id="Group">
<g id="Group 2">
<path id="Vector" d="M220.903 65.0162C220.903 90.1775 194.452 106.306 174.129 106.952C164.774 107.274 157.032 104.371 152.193 102.113C150.258 103.726 147.355 105.661 143.484 106.952C136.71 109.21 128.323 109.532 127.355 106.952C126.71 105.016 130.903 103.403 133.806 97.2742C135.419 94.0484 135.742 90.8226 135.742 88.5646C132.193 84.0484 127.032 75.6613 127.355 65.0162C127.677 43.7258 149.613 23.0807 174.129 23.0807C198.645 23.0807 220.903 41.7904 220.903 65.0162Z" stroke="#1B1C1E" stroke-width="9.67742" stroke-miterlimit="10"/>
<path id="Vector_2" d="M172.516 46.3063L178.645 58.2418L191.871 60.1772L182.194 69.5321L184.452 82.7579L172.516 76.3063L160.903 82.7579L163.161 69.5321L153.484 60.1772L166.71 58.2418L172.516 46.3063Z" fill="#E59500" stroke="#E59500" stroke-width="3.22581" stroke-linejoin="round"/>
</g>
<g id="Group 1">
<g id="Group_2">
<path id="Vector_3" d="M102.838 85.984C104.129 91.1453 104.129 95.0162 104.129 96.6291C103.483 116.629 86.0641 145.339 55.419 145.339C24.7738 145.339 6.38672 123.726 6.38672 96.9517C6.38672 70.1775 6.38672 92.113 7.03188 88.242" stroke="#1B1C1E" stroke-width="9.67742" stroke-linecap="round" stroke-linejoin="round"/>
<path id="Vector_4" d="M35.7419 116.307C35.7419 116.307 43.1613 125.984 55.4194 125.984C67.6774 125.984 75.0968 116.307 75.0968 116.307" stroke="#1B1C1E" stroke-width="9.67742" stroke-linecap="round" stroke-linejoin="round"/>
<path id="Vector_5" d="M40.5807 99.855C38 99.855 35.7419 97.597 35.7419 95.0163C35.7419 92.4357 38 90.1776 40.5807 90.1776C43.1613 90.1776 45.4194 92.4357 45.4194 95.0163C45.4194 97.597 43.1613 99.855 40.5807 99.855Z" fill="#1B1C1E"/>
<path id="Vector_6" d="M69.9349 99.855C67.3543 99.855 65.0962 97.597 65.0962 95.0163C65.0962 92.4357 67.3543 90.1776 69.9349 90.1776C72.5155 90.1776 74.7736 92.4357 74.7736 95.0163C74.7736 97.597 72.5155 99.855 69.9349 99.855Z" fill="#1B1C1E"/>
</g>
<g id="Group_3">
<path id="Vector_7" d="M54.7738 8.56458C74.7738 8.56458 87.3544 21.4678 90.2576 24.6936C103.483 39.2097 103.161 56.6291 103.161 60.1775C95.7415 55.9839 78.3222 47.2743 54.7738 47.2743C31.2254 47.2743 26.7093 48.5646 6.38668 60.1775C6.38668 56.6291 6.0641 39.2097 19.2899 24.6936C22.1931 21.4678 34.7738 8.56458 54.7738 8.56458Z" stroke="#1B1C1E" stroke-width="9.67742" stroke-linejoin="round"/>
<path id="Vector_8" d="M7.99974 58.5646C3.16103 77.2743 5.41909 82.7581 7.99974 84.371C11.5481 86.3065 15.4191 81.7904 27.3546 77.9194C39.6126 74.0484 49.9352 74.371 56.3868 74.6936C60.2578 74.6936 68.6449 75.0162 78.9675 77.9194C93.161 81.7904 97.9997 86.6291 101.548 84.371C104.129 82.7581 106.387 77.2743 101.548 58.5646" stroke="#1B1C1E" stroke-width="9.67742" stroke-miterlimit="10"/>
<path id="Vector_9" d="M51.5481 5.33875H57.9997" stroke="#1B1C1E" stroke-width="9.67742" stroke-linecap="round" stroke-linejoin="round"/>
<path id="Vector_10" d="M27.3545 19.8549C28.3222 20.8226 32.8384 24.371 40.5803 27.9194C43.8061 29.5323 47.3545 30.5 47.9997 30.8226C49.9351 31.4678 51.8706 31.7903 53.4835 31.7903C54.4513 31.7903 54.7738 31.7903 55.419 31.7903C56.3868 31.7903 58.9674 31.7903 61.8706 30.8226C64.1287 30.1774 66.7093 29.2097 69.29 27.9194C74.7738 25.3387 79.29 22.4355 82.5158 19.8549" stroke="#1B1C1E" stroke-width="6.45161" stroke-miterlimit="10"/>
<path id="Vector_11" d="M54.7739 8.56458V47.2743" stroke="#1B1C1E" stroke-width="6.45161" stroke-miterlimit="10"/>
</g>
</g>
</g>
</g>
</g>
<defs>
<clipPath id="clip0_52_2">
<rect width="225.484" height="150" fill="white" transform="translate(0.258057 0.5)"/>
</clipPath>
</defs>
</svg>
