<svg width="24" height="25" viewBox="0 0 24 25" fill="none" xmlns="http://www.w3.org/2000/svg">
<g id="uil:graduation-cap">
<path id="Vector" d="M22.4413 10.343L21.3459 9.72111L11.4874 4.06784H11.3669C11.2997 4.03853 11.23 4.01582 11.1588 4H10.7535C10.6786 4.01583 10.6053 4.03853 10.5344 4.06784H10.4139L0.55531 9.72111C0.38673 9.81972 0.246511 9.96272 0.148955 10.1355C0.0513995 10.3083 0 10.5048 0 10.7048C0 10.9048 0.0513995 11.1012 0.148955 11.274C0.246511 11.4468 0.38673 11.5898 0.55531 11.6884L3.28285 13.2487V18.608C3.28285 19.5076 3.62907 20.3704 4.24535 21.0065C4.86163 21.6426 5.69749 22 6.56904 22H15.3322C16.2038 22 17.0396 21.6426 17.6559 21.0065C18.2722 20.3704 18.6184 19.5076 18.6184 18.608V13.2487L20.8092 11.9824V15.2161C20.8092 15.5159 20.9246 15.8035 21.13 16.0156C21.3355 16.2276 21.6141 16.3467 21.9046 16.3467C22.1951 16.3467 22.4737 16.2276 22.6792 16.0156C22.8846 15.8035 23 15.5159 23 15.2161V11.3266C22.9997 11.1263 22.9478 10.9296 22.8496 10.7568C22.7514 10.5839 22.6105 10.4411 22.4413 10.343ZM16.4276 18.608C16.4276 18.9079 16.3122 19.1955 16.1068 19.4075C15.9014 19.6196 15.6227 19.7387 15.3322 19.7387H6.56904C6.27852 19.7387 5.9999 19.6196 5.79448 19.4075C5.58905 19.1955 5.47364 18.9079 5.47364 18.608V14.5038L10.4139 17.3304L10.5782 17.3982H10.6768C10.7677 17.4101 10.8597 17.4101 10.9506 17.3982C11.0416 17.4101 11.1336 17.4101 11.2245 17.3982H11.3231C11.3812 17.3856 11.4368 17.3626 11.4874 17.3304L16.4276 14.5038V18.608ZM10.9506 15.0578L3.34857 10.6935L10.9506 6.32915L18.5527 10.6935L10.9506 15.0578Z" fill="#1B1C1E"/>
</g>
</svg>
