<svg xmlns="http://www.w3.org/2000/svg" width="361" height="199" viewBox="0 0 361 199" fill="none">
  <path fill-rule="evenodd" clip-rule="evenodd" d="M6.62958 0.592896H0.48584L0.48584 6.73663L0.48584 192.414L0.48584 198.558H6.62958H354.775H360.918V192.414L360.918 6.73663L360.918 0.592896H354.775H6.62958ZM12.7733 25.1214V12.8804H175.241L175.241 110.202C166.693 110.007 155.413 108.999 142.552 105.891L142.551 105.891C112.241 98.5745 91.4903 83.9288 53.227 56.3627L53.2256 56.3617C43.3846 49.2762 29.3211 38.7381 12.7733 25.1214ZM12.7733 40.9589L12.7733 186.27H175.241L175.241 122.493C165.942 122.297 153.665 121.218 139.668 117.835C106.628 109.86 83.9635 93.6504 46.0445 66.3324C37.6159 60.2638 26.1786 51.7319 12.7733 40.9589ZM187.528 186.27H348.631V41.5069C335.521 52.0208 324.329 60.3658 316.044 66.331C276.104 95.1314 254.484 110.568 222.336 117.854L222.331 117.856C208.707 120.932 196.298 121.871 187.528 122.265L187.528 186.27ZM348.631 25.6826L348.631 12.8804H187.528L187.528 109.964C195.913 109.57 207.248 108.665 219.624 105.87C248.911 99.2306 268.522 85.4499 308.858 56.3643L308.861 56.3617C318.567 49.3739 332.379 39.0279 348.631 25.6826Z" fill="white" fill-opacity="0.2"/>
</svg>